G04*
G04 #@! TF.GenerationSoftware,Altium Limited,Altium Designer,25.4.2 (15)*
G04*
G04 Layer_Color=8388736*
%FSLAX44Y44*%
%MOMM*%
G71*
G04*
G04 #@! TF.SameCoordinates,6A8DEE2E-71F6-4429-A04B-94C45BF31DEA*
G04*
G04*
G04 #@! TF.FilePolarity,Negative*
G04*
G01*
G75*
%ADD24R,1.3000X1.5500*%
%ADD27R,1.3383X0.5780*%
G04:AMPARAMS|DCode=28|XSize=1.3383mm|YSize=0.578mm|CornerRadius=0.289mm|HoleSize=0mm|Usage=FLASHONLY|Rotation=180.000|XOffset=0mm|YOffset=0mm|HoleType=Round|Shape=RoundedRectangle|*
%AMROUNDEDRECTD28*
21,1,1.3383,0.0000,0,0,180.0*
21,1,0.7603,0.5780,0,0,180.0*
1,1,0.5780,-0.3802,0.0000*
1,1,0.5780,0.3802,0.0000*
1,1,0.5780,0.3802,0.0000*
1,1,0.5780,-0.3802,0.0000*
%
%ADD28ROUNDEDRECTD28*%
%ADD31R,0.2500X0.8000*%
G04:AMPARAMS|DCode=32|XSize=0.8mm|YSize=0.25mm|CornerRadius=0.125mm|HoleSize=0mm|Usage=FLASHONLY|Rotation=270.000|XOffset=0mm|YOffset=0mm|HoleType=Round|Shape=RoundedRectangle|*
%AMROUNDEDRECTD32*
21,1,0.8000,0.0000,0,0,270.0*
21,1,0.5500,0.2500,0,0,270.0*
1,1,0.2500,0.0000,-0.2750*
1,1,0.2500,0.0000,0.2750*
1,1,0.2500,0.0000,0.2750*
1,1,0.2500,0.0000,-0.2750*
%
%ADD32ROUNDEDRECTD32*%
G04:AMPARAMS|DCode=33|XSize=0.25mm|YSize=0.8mm|CornerRadius=0.125mm|HoleSize=0mm|Usage=FLASHONLY|Rotation=270.000|XOffset=0mm|YOffset=0mm|HoleType=Round|Shape=RoundedRectangle|*
%AMROUNDEDRECTD33*
21,1,0.2500,0.5500,0,0,270.0*
21,1,0.0000,0.8000,0,0,270.0*
1,1,0.2500,-0.2750,0.0000*
1,1,0.2500,-0.2750,0.0000*
1,1,0.2500,0.2750,0.0000*
1,1,0.2500,0.2750,0.0000*
%
%ADD33ROUNDEDRECTD33*%
%ADD34R,2.6000X2.6000*%
%ADD35R,1.2954X1.2954*%
%ADD43R,0.9000X0.9500*%
G04:AMPARAMS|DCode=44|XSize=1.3571mm|YSize=0.5721mm|CornerRadius=0.2861mm|HoleSize=0mm|Usage=FLASHONLY|Rotation=0.000|XOffset=0mm|YOffset=0mm|HoleType=Round|Shape=RoundedRectangle|*
%AMROUNDEDRECTD44*
21,1,1.3571,0.0000,0,0,0.0*
21,1,0.7850,0.5721,0,0,0.0*
1,1,0.5721,0.3925,0.0000*
1,1,0.5721,-0.3925,0.0000*
1,1,0.5721,-0.3925,0.0000*
1,1,0.5721,0.3925,0.0000*
%
%ADD44ROUNDEDRECTD44*%
%ADD45R,1.3571X0.5721*%
%ADD47R,1.2500X1.1000*%
%ADD52R,0.9398X2.4892*%
%ADD53R,5.5626X6.2992*%
G04:AMPARAMS|DCode=57|XSize=1.464mm|YSize=0.3758mm|CornerRadius=0.1879mm|HoleSize=0mm|Usage=FLASHONLY|Rotation=0.000|XOffset=0mm|YOffset=0mm|HoleType=Round|Shape=RoundedRectangle|*
%AMROUNDEDRECTD57*
21,1,1.4640,0.0000,0,0,0.0*
21,1,1.0881,0.3758,0,0,0.0*
1,1,0.3758,0.5441,0.0000*
1,1,0.3758,-0.5441,0.0000*
1,1,0.3758,-0.5441,0.0000*
1,1,0.3758,0.5441,0.0000*
%
%ADD57ROUNDEDRECTD57*%
%ADD58R,1.4640X0.3758*%
%ADD61R,1.1500X0.6000*%
%ADD62R,1.1500X0.3000*%
%ADD63R,0.6416X0.7016*%
%ADD64R,1.0016X1.6016*%
%ADD65R,1.0016X1.0016*%
%ADD66R,1.6016X1.0016*%
%ADD67R,1.3516X1.0016*%
%ADD68R,1.0316X0.9016*%
%ADD69R,0.7016X0.7416*%
%ADD70R,0.7416X0.7016*%
G04:AMPARAMS|DCode=71|XSize=0.5516mm|YSize=1.6516mm|CornerRadius=0.1003mm|HoleSize=0mm|Usage=FLASHONLY|Rotation=0.000|XOffset=0mm|YOffset=0mm|HoleType=Round|Shape=RoundedRectangle|*
%AMROUNDEDRECTD71*
21,1,0.5516,1.4510,0,0,0.0*
21,1,0.3510,1.6516,0,0,0.0*
1,1,0.2006,0.1755,-0.7255*
1,1,0.2006,-0.1755,-0.7255*
1,1,0.2006,-0.1755,0.7255*
1,1,0.2006,0.1755,0.7255*
%
%ADD71ROUNDEDRECTD71*%
%ADD72R,1.2016X1.1016*%
%ADD73R,5.1016X3.0016*%
%ADD74R,2.0066X1.2954*%
%ADD75C,1.1016*%
%ADD76R,1.4016X2.1016*%
%ADD77R,2.1016X2.1016*%
G04:AMPARAMS|DCode=78|XSize=0.5516mm|YSize=1.6516mm|CornerRadius=0.1003mm|HoleSize=0mm|Usage=FLASHONLY|Rotation=270.000|XOffset=0mm|YOffset=0mm|HoleType=Round|Shape=RoundedRectangle|*
%AMROUNDEDRECTD78*
21,1,0.5516,1.4510,0,0,270.0*
21,1,0.3510,1.6516,0,0,270.0*
1,1,0.2006,-0.7255,-0.1755*
1,1,0.2006,-0.7255,0.1755*
1,1,0.2006,0.7255,0.1755*
1,1,0.2006,0.7255,-0.1755*
%
%ADD78ROUNDEDRECTD78*%
%ADD79R,0.7016X0.6416*%
%ADD80R,1.2016X0.6016*%
G04:AMPARAMS|DCode=81|XSize=1.3316mm|YSize=0.7016mm|CornerRadius=0.1258mm|HoleSize=0mm|Usage=FLASHONLY|Rotation=270.000|XOffset=0mm|YOffset=0mm|HoleType=Round|Shape=RoundedRectangle|*
%AMROUNDEDRECTD81*
21,1,1.3316,0.4500,0,0,270.0*
21,1,1.0800,0.7016,0,0,270.0*
1,1,0.2516,-0.2250,-0.5400*
1,1,0.2516,-0.2250,0.5400*
1,1,0.2516,0.2250,0.5400*
1,1,0.2516,0.2250,-0.5400*
%
%ADD81ROUNDEDRECTD81*%
G04:AMPARAMS|DCode=82|XSize=0.7516mm|YSize=1.1016mm|CornerRadius=0.1321mm|HoleSize=0mm|Usage=FLASHONLY|Rotation=0.000|XOffset=0mm|YOffset=0mm|HoleType=Round|Shape=RoundedRectangle|*
%AMROUNDEDRECTD82*
21,1,0.7516,0.8375,0,0,0.0*
21,1,0.4875,1.1016,0,0,0.0*
1,1,0.2641,0.2438,-0.4188*
1,1,0.2641,-0.2438,-0.4188*
1,1,0.2641,-0.2438,0.4188*
1,1,0.2641,0.2438,0.4188*
%
%ADD82ROUNDEDRECTD82*%
%ADD83R,1.1016X3.1016*%
%ADD84R,1.3016X0.7016*%
%ADD85R,1.5516X2.9116*%
%ADD86R,1.5716X1.2616*%
%ADD87R,1.0716X1.8316*%
%ADD88R,2.6416X1.9016*%
%ADD89R,1.4016X1.9016*%
%ADD90R,2.4316X1.6516*%
%ADD91R,0.5016X0.5016*%
%ADD92C,0.8016*%
%ADD93O,5.1016X1.6016*%
%ADD94C,1.6256*%
%ADD95C,1.8016*%
%ADD96C,1.5500*%
%ADD97R,1.5500X1.5500*%
%ADD98R,1.4096X1.4096*%
%ADD99C,1.4096*%
G04:AMPARAMS|DCode=100|XSize=1mm|YSize=1.8mm|CornerRadius=0.5mm|HoleSize=0mm|Usage=FLASHONLY|Rotation=270.000|XOffset=0mm|YOffset=0mm|HoleType=Round|Shape=RoundedRectangle|*
%AMROUNDEDRECTD100*
21,1,1.0000,0.8000,0,0,270.0*
21,1,0.0000,1.8000,0,0,270.0*
1,1,1.0000,-0.4000,0.0000*
1,1,1.0000,-0.4000,0.0000*
1,1,1.0000,0.4000,0.0000*
1,1,1.0000,0.4000,0.0000*
%
%ADD100ROUNDEDRECTD100*%
G04:AMPARAMS|DCode=101|XSize=1mm|YSize=2.2mm|CornerRadius=0.5mm|HoleSize=0mm|Usage=FLASHONLY|Rotation=270.000|XOffset=0mm|YOffset=0mm|HoleType=Round|Shape=RoundedRectangle|*
%AMROUNDEDRECTD101*
21,1,1.0000,1.2000,0,0,270.0*
21,1,0.0000,2.2000,0,0,270.0*
1,1,1.0000,-0.6000,0.0000*
1,1,1.0000,-0.6000,0.0000*
1,1,1.0000,0.6000,0.0000*
1,1,1.0000,0.6000,0.0000*
%
%ADD101ROUNDEDRECTD101*%
G36*
X417967Y491000D02*
D01*
D01*
D01*
D01*
D01*
D01*
D01*
D01*
D02*
G37*
G36*
X438033D02*
D01*
D01*
D01*
D01*
D01*
D01*
D01*
D01*
D02*
G37*
D24*
X549500Y411750D02*
D03*
Y332250D02*
D03*
X504500Y411750D02*
D03*
Y332250D02*
D03*
X582500Y333250D02*
D03*
Y412750D02*
D03*
X627500Y333250D02*
D03*
Y412750D02*
D03*
D27*
X190162Y368500D02*
D03*
D28*
Y378000D02*
D03*
Y387500D02*
D03*
X167838D02*
D03*
Y368500D02*
D03*
D31*
X258250Y323250D02*
D03*
D32*
X253250D02*
D03*
X248250D02*
D03*
X243250D02*
D03*
X238250D02*
D03*
Y282750D02*
D03*
X243250D02*
D03*
X248250D02*
D03*
X253250D02*
D03*
X258250D02*
D03*
D33*
X228000Y313000D02*
D03*
Y308000D02*
D03*
Y303000D02*
D03*
Y298000D02*
D03*
Y293000D02*
D03*
X268500D02*
D03*
Y298000D02*
D03*
Y303000D02*
D03*
Y308000D02*
D03*
Y313000D02*
D03*
D34*
X248250Y303000D02*
D03*
D35*
X439500Y518500D02*
D03*
X416500D02*
D03*
D43*
X140500Y192000D02*
D03*
X109000D02*
D03*
X140750Y214000D02*
D03*
X109250D02*
D03*
X230750Y460000D02*
D03*
X199250D02*
D03*
D44*
X346506Y293000D02*
D03*
X327495Y283500D02*
D03*
X346506Y258000D02*
D03*
X327495Y248500D02*
D03*
D45*
Y302500D02*
D03*
Y267500D02*
D03*
D47*
X192000Y348000D02*
D03*
Y323000D02*
D03*
D52*
X185860Y638466D02*
D03*
X140140D02*
D03*
D53*
X163000Y720000D02*
D03*
D57*
X282201Y982500D02*
D03*
Y969500D02*
D03*
X265799D02*
D03*
Y976000D02*
D03*
D58*
Y982500D02*
D03*
D61*
X64250Y238000D02*
D03*
Y246000D02*
D03*
Y302000D02*
D03*
Y294000D02*
D03*
Y108000D02*
D03*
Y116000D02*
D03*
Y172000D02*
D03*
Y164000D02*
D03*
D62*
Y252500D02*
D03*
Y282500D02*
D03*
Y287500D02*
D03*
Y272500D02*
D03*
Y277500D02*
D03*
Y262500D02*
D03*
Y267500D02*
D03*
Y257500D02*
D03*
Y122500D02*
D03*
Y152500D02*
D03*
Y157500D02*
D03*
Y142500D02*
D03*
Y147500D02*
D03*
Y132500D02*
D03*
Y137500D02*
D03*
Y127500D02*
D03*
D63*
X570680Y515000D02*
D03*
X579320D02*
D03*
X72320Y601000D02*
D03*
X63680D02*
D03*
X524680Y559000D02*
D03*
X533320D02*
D03*
X599000Y313000D02*
D03*
X607640D02*
D03*
X91320Y128000D02*
D03*
X82680D02*
D03*
X294320Y288000D02*
D03*
X285680D02*
D03*
X378320Y293000D02*
D03*
X369680D02*
D03*
X378320Y258000D02*
D03*
X369680D02*
D03*
X274320Y268000D02*
D03*
X265680D02*
D03*
X266000Y255000D02*
D03*
X274640D02*
D03*
X197320Y293000D02*
D03*
X188680D02*
D03*
X197320Y308000D02*
D03*
X188680D02*
D03*
X170320Y323000D02*
D03*
X161680D02*
D03*
X52320Y461000D02*
D03*
X43680D02*
D03*
Y475000D02*
D03*
X52320D02*
D03*
X93640Y258000D02*
D03*
X85000D02*
D03*
X525680Y766000D02*
D03*
X534320D02*
D03*
D64*
X468100Y272500D02*
D03*
X480800D02*
D03*
X633200Y97500D02*
D03*
X620500D02*
D03*
X607800D02*
D03*
X595100D02*
D03*
X582400D02*
D03*
X569700D02*
D03*
X557000D02*
D03*
X544300D02*
D03*
X531600D02*
D03*
X518900D02*
D03*
X506200D02*
D03*
X493500D02*
D03*
X480800D02*
D03*
X468100D02*
D03*
X493500Y272500D02*
D03*
X506200D02*
D03*
X518900D02*
D03*
X531600D02*
D03*
X544300D02*
D03*
X557000D02*
D03*
X569700D02*
D03*
X582400D02*
D03*
X595100D02*
D03*
X607800D02*
D03*
X620500D02*
D03*
X633200D02*
D03*
D65*
X570000Y186000D02*
D03*
X556000D02*
D03*
X542000D02*
D03*
Y200000D02*
D03*
Y214000D02*
D03*
X556000D02*
D03*
X570000D02*
D03*
Y200000D02*
D03*
X556000D02*
D03*
D66*
X455600Y115150D02*
D03*
Y127850D02*
D03*
Y140550D02*
D03*
Y153250D02*
D03*
Y165950D02*
D03*
Y178650D02*
D03*
Y191350D02*
D03*
Y204050D02*
D03*
Y216750D02*
D03*
Y229450D02*
D03*
Y242150D02*
D03*
Y254850D02*
D03*
D67*
X44050Y422500D02*
D03*
Y392500D02*
D03*
Y377500D02*
D03*
D68*
X34650Y438000D02*
D03*
Y362000D02*
D03*
X11950Y438000D02*
D03*
Y362000D02*
D03*
D69*
X531450Y486410D02*
D03*
X522650D02*
D03*
X531450Y425450D02*
D03*
X522650D02*
D03*
X498520Y548640D02*
D03*
X507320D02*
D03*
X498520Y533400D02*
D03*
X507320D02*
D03*
X512490Y601980D02*
D03*
X521290D02*
D03*
X504280Y651510D02*
D03*
X513080D02*
D03*
X630510Y310134D02*
D03*
X621710D02*
D03*
X621600Y293000D02*
D03*
X630400D02*
D03*
X531400Y333000D02*
D03*
X522600D02*
D03*
X600600D02*
D03*
X609400D02*
D03*
X607650Y297688D02*
D03*
X598850D02*
D03*
X252400Y268000D02*
D03*
X243600D02*
D03*
X243200Y255000D02*
D03*
X252000D02*
D03*
X479600Y766000D02*
D03*
X488400D02*
D03*
X453600Y446000D02*
D03*
X462400D02*
D03*
X167400Y1050000D02*
D03*
X158600D02*
D03*
Y1037000D02*
D03*
X167400D02*
D03*
X62600Y535000D02*
D03*
X71400D02*
D03*
Y549000D02*
D03*
X62600D02*
D03*
D70*
X449580Y696640D02*
D03*
Y705440D02*
D03*
X433070Y696640D02*
D03*
Y705440D02*
D03*
X90000Y244400D02*
D03*
Y235600D02*
D03*
X292000Y304000D02*
D03*
Y312800D02*
D03*
X213000Y291800D02*
D03*
Y283000D02*
D03*
X90000Y105600D02*
D03*
Y114400D02*
D03*
X566000Y634000D02*
D03*
Y625200D02*
D03*
X144000Y314600D02*
D03*
Y323400D02*
D03*
X214000Y387400D02*
D03*
Y378600D02*
D03*
X319000Y370600D02*
D03*
Y379400D02*
D03*
X172000Y1013400D02*
D03*
Y1004600D02*
D03*
D71*
X473250Y682750D02*
D03*
X479750D02*
D03*
X486250D02*
D03*
X492750D02*
D03*
X473250Y729250D02*
D03*
X479750D02*
D03*
X486250D02*
D03*
X492750D02*
D03*
D72*
X58500Y511000D02*
D03*
X75500D02*
D03*
X92500D02*
D03*
X109500D02*
D03*
D73*
X64000Y727000D02*
D03*
Y628000D02*
D03*
D74*
X428000Y463500D02*
D03*
D75*
X576000Y808000D02*
D03*
X480000Y659000D02*
D03*
X556000Y559000D02*
D03*
X580000Y456000D02*
D03*
X104000Y106000D02*
D03*
X108000Y233000D02*
D03*
X174000Y425000D02*
D03*
X231000Y494000D02*
D03*
X154000Y484000D02*
D03*
X24000Y574000D02*
D03*
X310000Y815000D02*
D03*
X291000Y947000D02*
D03*
X265000Y945000D02*
D03*
D76*
X546500Y686000D02*
D03*
X523500D02*
D03*
D77*
X535000Y726000D02*
D03*
D78*
X540250Y617250D02*
D03*
Y623750D02*
D03*
Y630250D02*
D03*
Y636750D02*
D03*
X493750Y617250D02*
D03*
Y623750D02*
D03*
Y630250D02*
D03*
Y636750D02*
D03*
X504750Y521750D02*
D03*
Y515250D02*
D03*
Y508750D02*
D03*
Y502250D02*
D03*
X551250Y521750D02*
D03*
Y515250D02*
D03*
Y508750D02*
D03*
Y502250D02*
D03*
X504750Y469750D02*
D03*
Y463250D02*
D03*
Y456750D02*
D03*
Y450250D02*
D03*
X551250Y469750D02*
D03*
Y463250D02*
D03*
Y456750D02*
D03*
Y450250D02*
D03*
D79*
X566000Y601680D02*
D03*
Y610320D02*
D03*
X474000Y499680D02*
D03*
Y508320D02*
D03*
Y475680D02*
D03*
Y484320D02*
D03*
X90000Y155680D02*
D03*
Y164320D02*
D03*
X312166Y271014D02*
D03*
Y279654D02*
D03*
X304000Y392680D02*
D03*
Y401320D02*
D03*
Y379320D02*
D03*
Y370680D02*
D03*
X144000Y368320D02*
D03*
Y359680D02*
D03*
X24000Y461640D02*
D03*
Y453000D02*
D03*
X138000Y598000D02*
D03*
Y606640D02*
D03*
X246000Y827320D02*
D03*
Y818680D02*
D03*
X65000Y892320D02*
D03*
Y883680D02*
D03*
X45000Y924320D02*
D03*
Y915680D02*
D03*
X159000Y1004680D02*
D03*
Y1013320D02*
D03*
X189000D02*
D03*
Y1004680D02*
D03*
Y1035320D02*
D03*
Y1026680D02*
D03*
X90000Y285680D02*
D03*
Y294320D02*
D03*
D80*
X547500Y585000D02*
D03*
X524500D02*
D03*
X508500D02*
D03*
X485500D02*
D03*
D81*
X614500Y535600D02*
D03*
X595500D02*
D03*
X605000Y514400D02*
D03*
D82*
X214000Y415000D02*
D03*
X203800Y439000D02*
D03*
X224200D02*
D03*
X221800Y1022000D02*
D03*
X232000Y998000D02*
D03*
X211600D02*
D03*
X221800Y980000D02*
D03*
X232000Y956000D02*
D03*
X211600D02*
D03*
X121000Y606000D02*
D03*
X100600D02*
D03*
X110800Y582000D02*
D03*
D83*
X138000Y484000D02*
D03*
X118000D02*
D03*
D84*
X71000Y475500D02*
D03*
Y494500D02*
D03*
X97000D02*
D03*
Y485000D02*
D03*
Y475500D02*
D03*
D85*
X82300Y574000D02*
D03*
X53700D02*
D03*
D86*
X268000Y832000D02*
D03*
Y814400D02*
D03*
D87*
X225800Y823000D02*
D03*
X196200D02*
D03*
X175800D02*
D03*
X146200D02*
D03*
X128800D02*
D03*
X99200D02*
D03*
D88*
X64000D02*
D03*
Y775000D02*
D03*
D89*
X93500Y862000D02*
D03*
X64500D02*
D03*
X93500Y915000D02*
D03*
X64500D02*
D03*
X162500Y982000D02*
D03*
X133500D02*
D03*
D90*
X128300Y882000D02*
D03*
X171000D02*
D03*
X249350Y883000D02*
D03*
X206650D02*
D03*
X327000Y912000D02*
D03*
X284300D02*
D03*
X284650Y883000D02*
D03*
X327350D02*
D03*
X249000Y913000D02*
D03*
X206300D02*
D03*
D91*
X108000Y265000D02*
D03*
X122000D02*
D03*
X108000Y286000D02*
D03*
X122000D02*
D03*
X122322Y245522D02*
D03*
X108322D02*
D03*
X117000Y120000D02*
D03*
X103000D02*
D03*
X117000Y150000D02*
D03*
X103000D02*
D03*
X117000Y135000D02*
D03*
X103000D02*
D03*
D92*
X23301Y415001D02*
D03*
Y385001D02*
D03*
D93*
X63000Y952000D02*
D03*
X583000Y852000D02*
D03*
Y902000D02*
D03*
Y952000D02*
D03*
D94*
X335400Y29600D02*
D03*
X310000D02*
D03*
X233800D02*
D03*
X259200D02*
D03*
X284600D02*
D03*
X486794D02*
D03*
X462400D02*
D03*
X386200D02*
D03*
X411600D02*
D03*
X437000D02*
D03*
X360800D02*
D03*
X208400D02*
D03*
X183000D02*
D03*
X157600D02*
D03*
X284600Y1071000D02*
D03*
X310000D02*
D03*
X335400D02*
D03*
X360800D02*
D03*
D95*
X42840Y1055600D02*
D03*
X602560D02*
D03*
X42840Y45000D02*
D03*
X602560D02*
D03*
D96*
X244000Y139000D02*
D03*
D97*
X344000D02*
D03*
D98*
X257500Y394000D02*
D03*
D99*
Y374000D02*
D03*
D100*
X58500Y226800D02*
D03*
Y313200D02*
D03*
Y96800D02*
D03*
Y183200D02*
D03*
D101*
X18500Y226800D02*
D03*
Y313200D02*
D03*
Y96800D02*
D03*
Y183200D02*
D03*
M02*
