M48
;Layer_Color=9474304
;FILE_FORMAT=4:4
METRIC,LZ
;TYPE=PLATED
T01F00S00C0.3048
T03F00S00C0.7050
T04F00S00C0.7620
T05F00S00C0.8000
T06F00S00C1.0000
T07F00S00C1.2000
T08F00S00C1.6000
%
T01
X00044402Y00114822
X0009Y00091
X00445Y00105
X0047Y00069
X00477192Y00075984
X00486Y00083
X00564Y00067
X00556969Y00058044
X00598Y00116
X00625Y00115
X0062Y00137
X00608Y00141
X00592969Y00138044
X00587317Y00123137
X0057Y00174
X00556
X00542
X00549Y00193
X00563
Y00207
X00549
X0053Y002
X00542Y00226
X00556
X0057
X00582Y00249
X00609394Y00247687
X00628Y00255
X0061265Y00287688
X00627589Y00319199
X0057Y0031
X00558969Y00300044
X00557Y0029
X00549413Y0031374
X0054Y00305
X00519Y00309
X00527Y00292
X00506Y00293
X00491878Y00314919
X00511Y00257
X00582Y002
X00548Y0035
X00549661Y00427938
X00568Y00443
X00579Y00476
X00523273Y00501363
X00495Y00478
X00486Y00463
X00628Y00427
X00480081Y00455
X00461Y00464
X00458Y00473
X00446Y00485
X00448969Y00494044
X00405Y00415
X00417Y00403
X00339Y00375
X00318932Y00359696
X00292Y00325
X00279Y0031
X0027775Y0029575
X00255Y00295
X0024
X00241Y00311
X00255
X00248Y00334
X00263Y00336
X00301963Y00305945
X00327Y00291
X00401Y00281
X00434Y00243
X00421Y00217
X00408Y00215
X00426Y00195
X00437Y00191
Y00166
X00423Y00178
X00424Y0015
X00423Y00139
X00424Y00128
X00436Y00119
X00268Y00139
X00266Y00243
X00251Y00246
X00237Y00242
X00228375Y00260608
X00229722Y00275728
X00213Y00272
X00173Y00288
X00169Y00296182
Y00304818
X00173Y00313
X00144Y00302
X0013Y00285
X00120969Y00273044
X00112Y00279
X00106Y00272
X00105Y00252
X0013Y00245
X00131Y00265
X00108969Y00294044
X00101Y0029
X00091Y00224
X001Y00158
X00101Y0012792
X00122774Y00135508
X00124176Y00149958
X00124Y0012
X00163Y00192
X00162899Y00213883
X00142219Y00337092
X00132Y0036
X00147Y00393
X00201Y00376
X00223Y0037
X00253888Y00442141
X00254548Y00462503
X00255Y00489
X00175961Y00462943
X0017519Y00442911
X00107Y00462
X00139Y00512
X00475Y00324
X00048Y00299
Y00242
X0004Y00167
X00029311Y00371889
X00017Y00372
X00061969Y00383044
X00062Y00393
X00070969Y00390044
X00061Y00423
X00028Y00428
X00016407Y00428273
X00011Y0045
X0001524Y0047752
X00035Y00469
X00033Y00494
X00076Y00485
X00043Y0045
X00081Y00523
X00084Y00548
X00043Y00611
X00089Y006
X00099474Y00571525
X00098Y00555
X00098579Y0053924
X00099Y00523
X00147656Y00582468
X00155969Y00595044
X00154Y00604
X00162969Y00613044
X00186Y00619
X002286Y0066675
Y006858
X00228656Y0070557
X002286Y007239
X00254
Y0070485
Y006858
Y0066675
X002794
X00341Y00566
X00358Y00583
X00474Y00521
X00461Y00707
X00470969Y00785044
X0048Y00781
X00277Y00847
X00253Y00845
X00162Y00851
X00493969Y00779044
X00507Y00766
X00486Y00701
X0051Y00624
X00555Y00632
X00557046Y00643522
X00578227Y00535286
X00625Y00528
X00632Y00521
X00524Y00902
X00319969Y00960044
X00325Y00969
X00330969Y00977044
X00253Y00976
X00268Y00995
X00235Y01027
X00200256Y01016668
X002Y01047
X00183Y01054
X00179Y0104
X00167345Y01025251
X00148Y01021
X00139Y01037
X00148Y0105
X00161Y00923
X00183Y00921
X00200003Y00938919
T03
X00023301Y00385001
Y00415001
T04
X001576Y000296
X00183
X002084
X002338
X002592
X002846
X0031
X003354
X003608
X003862
X004116
X00437
X004624
X00486794
X003608Y01071
X003354
X0031
X002846
T05
X002575Y00374
Y00394
T06
X00244Y00139
X00344
T07
X00583Y00852
Y00902
Y00952
X00063
T08
X0004284Y00045
X0060256
Y010556
X0004284
M30
