G04*
G04 #@! TF.GenerationSoftware,Altium Limited,Altium Designer,25.4.2 (15)*
G04*
G04 Layer_Color=8388736*
%FSLAX44Y44*%
%MOMM*%
G71*
G04*
G04 #@! TF.SameCoordinates,1E8D850E-D21C-4C0F-B5A5-9806772CD421*
G04*
G04*
G04 #@! TF.FilePolarity,Negative*
G04*
G01*
G75*
%ADD17R,1.3383X0.5780*%
G04:AMPARAMS|DCode=18|XSize=1.3383mm|YSize=0.578mm|CornerRadius=0.289mm|HoleSize=0mm|Usage=FLASHONLY|Rotation=180.000|XOffset=0mm|YOffset=0mm|HoleType=Round|Shape=RoundedRectangle|*
%AMROUNDEDRECTD18*
21,1,1.3383,0.0000,0,0,180.0*
21,1,0.7603,0.5780,0,0,180.0*
1,1,0.5780,-0.3802,0.0000*
1,1,0.5780,0.3802,0.0000*
1,1,0.5780,0.3802,0.0000*
1,1,0.5780,-0.3802,0.0000*
%
%ADD18ROUNDEDRECTD18*%
%ADD24R,0.2500X0.8000*%
G04:AMPARAMS|DCode=25|XSize=0.8mm|YSize=0.25mm|CornerRadius=0.125mm|HoleSize=0mm|Usage=FLASHONLY|Rotation=270.000|XOffset=0mm|YOffset=0mm|HoleType=Round|Shape=RoundedRectangle|*
%AMROUNDEDRECTD25*
21,1,0.8000,0.0000,0,0,270.0*
21,1,0.5500,0.2500,0,0,270.0*
1,1,0.2500,0.0000,-0.2750*
1,1,0.2500,0.0000,0.2750*
1,1,0.2500,0.0000,0.2750*
1,1,0.2500,0.0000,-0.2750*
%
%ADD25ROUNDEDRECTD25*%
G04:AMPARAMS|DCode=26|XSize=0.25mm|YSize=0.8mm|CornerRadius=0.125mm|HoleSize=0mm|Usage=FLASHONLY|Rotation=270.000|XOffset=0mm|YOffset=0mm|HoleType=Round|Shape=RoundedRectangle|*
%AMROUNDEDRECTD26*
21,1,0.2500,0.5500,0,0,270.0*
21,1,0.0000,0.8000,0,0,270.0*
1,1,0.2500,-0.2750,0.0000*
1,1,0.2500,-0.2750,0.0000*
1,1,0.2500,0.2750,0.0000*
1,1,0.2500,0.2750,0.0000*
%
%ADD26ROUNDEDRECTD26*%
%ADD27R,2.6000X2.6000*%
%ADD28R,1.2954X1.2954*%
%ADD40R,0.9000X0.9500*%
G04:AMPARAMS|DCode=41|XSize=1.3571mm|YSize=0.5721mm|CornerRadius=0.2861mm|HoleSize=0mm|Usage=FLASHONLY|Rotation=0.000|XOffset=0mm|YOffset=0mm|HoleType=Round|Shape=RoundedRectangle|*
%AMROUNDEDRECTD41*
21,1,1.3571,0.0000,0,0,0.0*
21,1,0.7850,0.5721,0,0,0.0*
1,1,0.5721,0.3925,0.0000*
1,1,0.5721,-0.3925,0.0000*
1,1,0.5721,-0.3925,0.0000*
1,1,0.5721,0.3925,0.0000*
%
%ADD41ROUNDEDRECTD41*%
%ADD42R,1.3571X0.5721*%
%ADD44R,1.2500X1.1000*%
%ADD49R,0.9398X2.4892*%
%ADD50R,5.5626X6.2992*%
G04:AMPARAMS|DCode=54|XSize=1.464mm|YSize=0.3758mm|CornerRadius=0.1879mm|HoleSize=0mm|Usage=FLASHONLY|Rotation=0.000|XOffset=0mm|YOffset=0mm|HoleType=Round|Shape=RoundedRectangle|*
%AMROUNDEDRECTD54*
21,1,1.4640,0.0000,0,0,0.0*
21,1,1.0881,0.3758,0,0,0.0*
1,1,0.3758,0.5441,0.0000*
1,1,0.3758,-0.5441,0.0000*
1,1,0.3758,-0.5441,0.0000*
1,1,0.3758,0.5441,0.0000*
%
%ADD54ROUNDEDRECTD54*%
%ADD55R,1.4640X0.3758*%
%ADD58R,1.1500X0.6000*%
%ADD59R,1.1500X0.3000*%
%ADD60R,1.3000X1.5500*%
%ADD63R,0.7016X0.7416*%
%ADD64R,1.2016X1.1016*%
%ADD65R,0.7416X0.7016*%
%ADD66R,5.1016X3.0016*%
%ADD67R,0.6416X0.7016*%
%ADD68R,2.0066X1.2954*%
%ADD69C,1.1016*%
%ADD70R,1.4016X2.1016*%
%ADD71R,2.1016X2.1016*%
G04:AMPARAMS|DCode=72|XSize=0.5516mm|YSize=1.6516mm|CornerRadius=0.1003mm|HoleSize=0mm|Usage=FLASHONLY|Rotation=0.000|XOffset=0mm|YOffset=0mm|HoleType=Round|Shape=RoundedRectangle|*
%AMROUNDEDRECTD72*
21,1,0.5516,1.4510,0,0,0.0*
21,1,0.3510,1.6516,0,0,0.0*
1,1,0.2006,0.1755,-0.7255*
1,1,0.2006,-0.1755,-0.7255*
1,1,0.2006,-0.1755,0.7255*
1,1,0.2006,0.1755,0.7255*
%
%ADD72ROUNDEDRECTD72*%
G04:AMPARAMS|DCode=73|XSize=0.5516mm|YSize=1.6516mm|CornerRadius=0.1003mm|HoleSize=0mm|Usage=FLASHONLY|Rotation=270.000|XOffset=0mm|YOffset=0mm|HoleType=Round|Shape=RoundedRectangle|*
%AMROUNDEDRECTD73*
21,1,0.5516,1.4510,0,0,270.0*
21,1,0.3510,1.6516,0,0,270.0*
1,1,0.2006,-0.7255,-0.1755*
1,1,0.2006,-0.7255,0.1755*
1,1,0.2006,0.7255,0.1755*
1,1,0.2006,0.7255,-0.1755*
%
%ADD73ROUNDEDRECTD73*%
%ADD74R,0.7016X0.6416*%
%ADD75R,1.2016X0.6016*%
G04:AMPARAMS|DCode=76|XSize=1.3316mm|YSize=0.7016mm|CornerRadius=0.1258mm|HoleSize=0mm|Usage=FLASHONLY|Rotation=270.000|XOffset=0mm|YOffset=0mm|HoleType=Round|Shape=RoundedRectangle|*
%AMROUNDEDRECTD76*
21,1,1.3316,0.4500,0,0,270.0*
21,1,1.0800,0.7016,0,0,270.0*
1,1,0.2516,-0.2250,-0.5400*
1,1,0.2516,-0.2250,0.5400*
1,1,0.2516,0.2250,0.5400*
1,1,0.2516,0.2250,-0.5400*
%
%ADD76ROUNDEDRECTD76*%
%ADD77R,1.0016X1.6016*%
%ADD78R,1.6016X1.0016*%
%ADD79R,1.0016X1.0016*%
G04:AMPARAMS|DCode=80|XSize=0.7516mm|YSize=1.1016mm|CornerRadius=0.1321mm|HoleSize=0mm|Usage=FLASHONLY|Rotation=0.000|XOffset=0mm|YOffset=0mm|HoleType=Round|Shape=RoundedRectangle|*
%AMROUNDEDRECTD80*
21,1,0.7516,0.8375,0,0,0.0*
21,1,0.4875,1.1016,0,0,0.0*
1,1,0.2641,0.2438,-0.4188*
1,1,0.2641,-0.2438,-0.4188*
1,1,0.2641,-0.2438,0.4188*
1,1,0.2641,0.2438,0.4188*
%
%ADD80ROUNDEDRECTD80*%
%ADD81R,1.1016X3.1016*%
%ADD82R,1.3016X0.7016*%
%ADD83R,1.5516X2.9116*%
%ADD84R,1.5716X1.2616*%
%ADD85R,1.0716X1.8316*%
%ADD86R,2.6416X1.9016*%
%ADD87R,1.4016X1.9016*%
%ADD88R,2.4316X1.6516*%
%ADD89R,0.5016X0.5016*%
%ADD90R,1.0316X0.9016*%
%ADD91R,1.3516X1.0016*%
%ADD92O,5.1016X1.6016*%
%ADD93C,1.6256*%
%ADD94C,1.8016*%
%ADD95C,1.5500*%
%ADD96R,1.5500X1.5500*%
%ADD97R,1.4096X1.4096*%
%ADD98C,1.4096*%
G04:AMPARAMS|DCode=99|XSize=1mm|YSize=1.8mm|CornerRadius=0.5mm|HoleSize=0mm|Usage=FLASHONLY|Rotation=270.000|XOffset=0mm|YOffset=0mm|HoleType=Round|Shape=RoundedRectangle|*
%AMROUNDEDRECTD99*
21,1,1.0000,0.8000,0,0,270.0*
21,1,0.0000,1.8000,0,0,270.0*
1,1,1.0000,-0.4000,0.0000*
1,1,1.0000,-0.4000,0.0000*
1,1,1.0000,0.4000,0.0000*
1,1,1.0000,0.4000,0.0000*
%
%ADD99ROUNDEDRECTD99*%
G04:AMPARAMS|DCode=100|XSize=1mm|YSize=2.2mm|CornerRadius=0.5mm|HoleSize=0mm|Usage=FLASHONLY|Rotation=270.000|XOffset=0mm|YOffset=0mm|HoleType=Round|Shape=RoundedRectangle|*
%AMROUNDEDRECTD100*
21,1,1.0000,1.2000,0,0,270.0*
21,1,0.0000,2.2000,0,0,270.0*
1,1,1.0000,-0.6000,0.0000*
1,1,1.0000,-0.6000,0.0000*
1,1,1.0000,0.6000,0.0000*
1,1,1.0000,0.6000,0.0000*
%
%ADD100ROUNDEDRECTD100*%
%ADD101C,0.8016*%
G36*
X338881Y719878D02*
X339910D01*
Y718849D01*
X341968D01*
Y717820D01*
X342996D01*
Y716792D01*
X344025D01*
Y715763D01*
X346082D01*
Y714734D01*
X347111D01*
Y713705D01*
X348140D01*
Y711648D01*
X349168D01*
Y710619D01*
X350197D01*
Y709591D01*
X351226D01*
Y708562D01*
X352254D01*
Y707533D01*
X353283D01*
Y705476D01*
X354312D01*
Y703418D01*
X355341D01*
Y702390D01*
X356369D01*
Y700332D01*
X357398D01*
Y697246D01*
X358427D01*
Y694160D01*
X359455D01*
Y691074D01*
X360484D01*
Y684902D01*
X361513D01*
Y679758D01*
X327566D01*
Y683873D01*
X326537D01*
Y686959D01*
X325508D01*
Y687988D01*
X324480D01*
Y689017D01*
X323451D01*
Y690045D01*
X322422D01*
Y691074D01*
X321394D01*
Y693131D01*
X322422D01*
Y694160D01*
X323451D01*
Y696217D01*
X324480D01*
Y698275D01*
X325508D01*
Y700332D01*
X326537D01*
Y701361D01*
X327566D01*
Y703418D01*
X328594D01*
Y705476D01*
X329623D01*
Y706505D01*
X330652D01*
Y708562D01*
X331680D01*
Y710619D01*
X332709D01*
Y712677D01*
X333738D01*
Y713705D01*
X334767D01*
Y715763D01*
X335795D01*
Y717820D01*
X336824D01*
Y718849D01*
X337853D01*
Y720906D01*
X338881D01*
Y719878D01*
D02*
G37*
G36*
X288475D02*
X289504D01*
Y717820D01*
X290532D01*
Y715763D01*
X291561D01*
Y713705D01*
X292590D01*
Y712677D01*
X293619D01*
Y710619D01*
X294647D01*
Y708562D01*
X295676D01*
Y706505D01*
X296705D01*
Y705476D01*
X297733D01*
Y703418D01*
X298762D01*
Y701361D01*
X299791D01*
Y699304D01*
X300819D01*
Y698275D01*
X301848D01*
Y696217D01*
X302877D01*
Y694160D01*
X303906D01*
Y691074D01*
X302877D01*
Y690045D01*
X301848D01*
Y687988D01*
X300819D01*
Y686959D01*
X299791D01*
Y684902D01*
X298762D01*
Y680787D01*
X297733D01*
Y679758D01*
X264815D01*
Y684902D01*
X265844D01*
Y689017D01*
Y690045D01*
Y691074D01*
X266872D01*
Y694160D01*
X267901D01*
Y697246D01*
X268930D01*
Y699304D01*
X269958D01*
Y701361D01*
X270987D01*
Y703418D01*
X272016D01*
Y705476D01*
X273045D01*
Y706505D01*
X274073D01*
Y708562D01*
X275102D01*
Y709591D01*
X276131D01*
Y710619D01*
X277159D01*
Y711648D01*
X278188D01*
Y713705D01*
X279217D01*
Y714734D01*
X280245D01*
Y715763D01*
X282303D01*
Y716792D01*
X283332D01*
Y717820D01*
X284360D01*
Y718849D01*
X286418D01*
Y719878D01*
X287446D01*
Y720906D01*
X288475D01*
Y719878D01*
D02*
G37*
G36*
X316250Y687988D02*
X318307D01*
Y686959D01*
X319336D01*
Y685930D01*
X320365D01*
Y684902D01*
X321394D01*
Y683873D01*
X322422D01*
Y680787D01*
X323451D01*
Y677701D01*
X322422D01*
Y674615D01*
X321394D01*
Y672557D01*
X320365D01*
Y671529D01*
X318307D01*
Y670500D01*
X316250D01*
Y669471D01*
X310078D01*
Y670500D01*
X308020D01*
Y671529D01*
X305963D01*
Y672557D01*
X304934D01*
Y674615D01*
X303906D01*
Y677701D01*
X302877D01*
Y680787D01*
X303906D01*
Y683873D01*
X304934D01*
Y684902D01*
X305963D01*
Y685930D01*
X306992D01*
Y686959D01*
X308020D01*
Y687988D01*
X310078D01*
Y689017D01*
X316250D01*
Y687988D01*
D02*
G37*
G36*
X321394Y664328D02*
X322422D01*
Y662270D01*
X323451D01*
Y661242D01*
X324480D01*
Y659184D01*
X325508D01*
Y657127D01*
X326537D01*
Y655070D01*
X327566D01*
Y654041D01*
X328594D01*
Y651983D01*
X329623D01*
Y649926D01*
X330652D01*
Y647869D01*
X331680D01*
Y646840D01*
X332709D01*
Y644782D01*
X333738D01*
Y642725D01*
X334767D01*
Y640668D01*
X335795D01*
Y638610D01*
X336824D01*
Y637582D01*
X335795D01*
Y636553D01*
X333738D01*
Y635524D01*
X330652D01*
Y634496D01*
X328594D01*
Y633467D01*
X324480D01*
Y632438D01*
X319336D01*
Y631409D01*
X308020D01*
Y632438D01*
X301848D01*
Y633467D01*
X297733D01*
Y634496D01*
X295676D01*
Y635524D01*
X292590D01*
Y636553D01*
X290532D01*
Y637582D01*
X289504D01*
Y638610D01*
X290532D01*
Y640668D01*
X291561D01*
Y642725D01*
X292590D01*
Y644782D01*
X293619D01*
Y645811D01*
X294647D01*
Y647869D01*
X295676D01*
Y649926D01*
X296705D01*
Y651983D01*
X297733D01*
Y653012D01*
X298762D01*
Y655070D01*
X299791D01*
Y656098D01*
Y657127D01*
X300819D01*
Y659184D01*
X301848D01*
Y660213D01*
X302877D01*
Y662270D01*
X303906D01*
Y664328D01*
X304934D01*
Y666385D01*
X306992D01*
Y665357D01*
X311106D01*
Y664328D01*
X315221D01*
Y665357D01*
X319336D01*
Y666385D01*
X321394D01*
Y664328D01*
D02*
G37*
G36*
X322422Y617008D02*
X324480D01*
Y615979D01*
X325508D01*
Y612893D01*
X323451D01*
Y611864D01*
X322422D01*
Y612893D01*
X321394D01*
Y613922D01*
X315221D01*
Y609807D01*
X317279D01*
Y608778D01*
X321394D01*
Y607749D01*
X323451D01*
Y606721D01*
X324480D01*
Y605692D01*
X325508D01*
Y604663D01*
X326537D01*
Y598491D01*
X325508D01*
Y597462D01*
X324480D01*
Y596434D01*
X323451D01*
Y595405D01*
X321394D01*
Y594376D01*
X315221D01*
Y595405D01*
X312135D01*
Y596434D01*
X311106D01*
Y597462D01*
X310078D01*
Y598491D01*
X309049D01*
Y599520D01*
X310078D01*
Y600548D01*
X312135D01*
Y601577D01*
X313164D01*
Y600548D01*
X314193D01*
Y599520D01*
X316250D01*
Y598491D01*
X320365D01*
Y599520D01*
X321394D01*
Y602606D01*
X320365D01*
Y603634D01*
X318307D01*
Y604663D01*
X315221D01*
Y605692D01*
X313164D01*
Y606721D01*
X312135D01*
Y607749D01*
X311106D01*
Y608778D01*
X310078D01*
Y613922D01*
X311106D01*
Y615979D01*
X312135D01*
Y617008D01*
X314193D01*
Y618036D01*
X322422D01*
Y617008D01*
D02*
G37*
G36*
X345054D02*
X346082D01*
Y615979D01*
X347111D01*
Y614950D01*
X348140D01*
Y613922D01*
X349168D01*
Y612893D01*
X348140D01*
Y611864D01*
X346082D01*
Y610835D01*
X345054D01*
Y611864D01*
X344025D01*
Y612893D01*
X342996D01*
Y613922D01*
X336824D01*
Y612893D01*
X335795D01*
Y611864D01*
X334767D01*
Y608778D01*
X333738D01*
Y603634D01*
X334767D01*
Y601577D01*
X335795D01*
Y600548D01*
X336824D01*
Y599520D01*
X338881D01*
Y598491D01*
X341968D01*
Y599520D01*
X344025D01*
Y600548D01*
X345054D01*
Y601577D01*
X347111D01*
Y600548D01*
X349168D01*
Y598491D01*
X348140D01*
Y597462D01*
X347111D01*
Y596434D01*
X345054D01*
Y595405D01*
X342996D01*
Y594376D01*
X336824D01*
Y595405D01*
X334767D01*
Y596434D01*
X332709D01*
Y597462D01*
X331680D01*
Y599520D01*
X330652D01*
Y600548D01*
X329623D01*
Y605692D01*
Y606721D01*
Y611864D01*
X330652D01*
Y613922D01*
X331680D01*
Y614950D01*
X332709D01*
Y615979D01*
X333738D01*
Y617008D01*
X335795D01*
Y618036D01*
X345054D01*
Y617008D01*
D02*
G37*
G36*
X395460Y615979D02*
Y614950D01*
Y595405D01*
X390316D01*
Y597462D01*
X389288D01*
Y598491D01*
X388259D01*
Y600548D01*
X387230D01*
Y601577D01*
X386202D01*
Y603634D01*
X385173D01*
Y604663D01*
X384144D01*
Y605692D01*
X383116D01*
Y607749D01*
X382087D01*
Y608778D01*
X381058D01*
Y595405D01*
X375915D01*
Y618036D01*
X381058D01*
Y617008D01*
X382087D01*
Y614950D01*
X383116D01*
Y613922D01*
X384144D01*
Y611864D01*
X385173D01*
Y610835D01*
X386202D01*
Y608778D01*
X387230D01*
Y607749D01*
X388259D01*
Y606721D01*
X389288D01*
Y604663D01*
X390316D01*
Y603634D01*
X391345D01*
Y618036D01*
X395460D01*
Y615979D01*
D02*
G37*
G36*
X305963Y602606D02*
X297733D01*
Y606721D01*
X305963D01*
Y602606D01*
D02*
G37*
G36*
X364599Y617008D02*
X365628D01*
Y614950D01*
X366656D01*
Y611864D01*
X367685D01*
Y608778D01*
X368714D01*
Y605692D01*
X369742D01*
Y602606D01*
X370771D01*
Y600548D01*
X371800D01*
Y597462D01*
X372828D01*
Y595405D01*
X367685D01*
Y597462D01*
X366656D01*
Y599520D01*
X357398D01*
Y597462D01*
X356369D01*
Y595405D01*
X351226D01*
Y596434D01*
X352254D01*
Y599520D01*
X353283D01*
Y602606D01*
X354312D01*
Y605692D01*
X355341D01*
Y607749D01*
X356369D01*
Y610835D01*
X357398D01*
Y613922D01*
X358427D01*
Y617008D01*
X359455D01*
Y618036D01*
X364599D01*
Y617008D01*
D02*
G37*
G36*
X286418D02*
X289504D01*
Y615979D01*
X290532D01*
Y614950D01*
X291561D01*
Y613922D01*
X292590D01*
Y611864D01*
X293619D01*
Y609807D01*
X294647D01*
Y603634D01*
X293619D01*
Y600548D01*
X292590D01*
Y599520D01*
X291561D01*
Y597462D01*
X289504D01*
Y596434D01*
X287446D01*
Y595405D01*
X274073D01*
Y605692D01*
Y606721D01*
Y618036D01*
X286418D01*
Y617008D01*
D02*
G37*
G36*
X263786Y615979D02*
X264815D01*
Y612893D01*
X265844D01*
Y609807D01*
X266872D01*
Y606721D01*
X267901D01*
Y604663D01*
X268930D01*
Y601577D01*
X269958D01*
Y598491D01*
X270987D01*
Y595405D01*
X265844D01*
Y598491D01*
X264815D01*
Y599520D01*
X256585D01*
Y598491D01*
X255557D01*
Y595405D01*
X250413D01*
Y598491D01*
X251442D01*
Y601577D01*
X252471D01*
Y603634D01*
X253499D01*
Y606721D01*
X254528D01*
Y609807D01*
X255557D01*
Y612893D01*
X256585D01*
Y614950D01*
X257614D01*
Y618036D01*
X263786D01*
Y615979D01*
D02*
G37*
G36*
X242184Y617008D02*
X244241D01*
Y615979D01*
X245270D01*
Y614950D01*
X246298D01*
Y613922D01*
X247327D01*
Y607749D01*
X246298D01*
Y605692D01*
X245270D01*
Y604663D01*
X244241D01*
Y603634D01*
X243212D01*
Y602606D01*
X244241D01*
Y600548D01*
X245270D01*
Y599520D01*
X246298D01*
Y597462D01*
X247327D01*
Y595405D01*
X242184D01*
Y596434D01*
X241155D01*
Y598491D01*
X240126D01*
Y599520D01*
Y600548D01*
X239097D01*
Y602606D01*
X238069D01*
Y603634D01*
X236011D01*
Y602606D01*
X234983D01*
Y595405D01*
X229839D01*
Y618036D01*
X242184D01*
Y617008D01*
D02*
G37*
%LPC*%
G36*
X362542Y611864D02*
X361513D01*
Y609807D01*
X360484D01*
Y606721D01*
X359455D01*
Y603634D01*
X364599D01*
Y606721D01*
X363570D01*
Y609807D01*
X362542D01*
Y611864D01*
D02*
G37*
G36*
X285389Y613922D02*
X279217D01*
Y602606D01*
Y601577D01*
Y599520D01*
X286418D01*
Y600548D01*
X287446D01*
Y601577D01*
X288475D01*
Y603634D01*
X289504D01*
Y609807D01*
X288475D01*
Y611864D01*
X287446D01*
Y612893D01*
X285389D01*
Y613922D01*
D02*
G37*
G36*
X261729Y610835D02*
X259671D01*
Y609807D01*
Y607749D01*
X258643D01*
Y604663D01*
X257614D01*
Y603634D01*
X262758D01*
Y607749D01*
X261729D01*
Y610835D01*
D02*
G37*
G36*
X241155Y613922D02*
X234983D01*
Y607749D01*
X241155D01*
Y608778D01*
X242184D01*
Y612893D01*
X241155D01*
Y613922D01*
D02*
G37*
%LPD*%
D17*
X190162Y368500D02*
D03*
D18*
Y378000D02*
D03*
Y387500D02*
D03*
X167838D02*
D03*
Y368500D02*
D03*
D24*
X258250Y323250D02*
D03*
D25*
X253250D02*
D03*
X248250D02*
D03*
X243250D02*
D03*
X238250D02*
D03*
Y282750D02*
D03*
X243250D02*
D03*
X248250D02*
D03*
X253250D02*
D03*
X258250D02*
D03*
D26*
X228000Y313000D02*
D03*
Y308000D02*
D03*
Y303000D02*
D03*
Y298000D02*
D03*
Y293000D02*
D03*
X268500D02*
D03*
Y298000D02*
D03*
Y303000D02*
D03*
Y308000D02*
D03*
Y313000D02*
D03*
D27*
X248250Y303000D02*
D03*
D28*
X439500Y518500D02*
D03*
X416500D02*
D03*
D40*
X140500Y192000D02*
D03*
X109000D02*
D03*
X140750Y214000D02*
D03*
X109250D02*
D03*
X230750Y460000D02*
D03*
X199250D02*
D03*
D41*
X346506Y293000D02*
D03*
X327495Y283500D02*
D03*
X346506Y258000D02*
D03*
X327495Y248500D02*
D03*
D42*
Y302500D02*
D03*
Y267500D02*
D03*
D44*
X192000Y348000D02*
D03*
Y323000D02*
D03*
D49*
X185860Y638466D02*
D03*
X140140D02*
D03*
D50*
X163000Y720000D02*
D03*
D54*
X282201Y982500D02*
D03*
Y969500D02*
D03*
X265799D02*
D03*
Y976000D02*
D03*
D55*
Y982500D02*
D03*
D58*
X64250Y238000D02*
D03*
Y246000D02*
D03*
Y302000D02*
D03*
Y294000D02*
D03*
Y108000D02*
D03*
Y116000D02*
D03*
Y172000D02*
D03*
Y164000D02*
D03*
D59*
Y252500D02*
D03*
Y282500D02*
D03*
Y287500D02*
D03*
Y272500D02*
D03*
Y277500D02*
D03*
Y262500D02*
D03*
Y267500D02*
D03*
Y257500D02*
D03*
Y122500D02*
D03*
Y152500D02*
D03*
Y157500D02*
D03*
Y142500D02*
D03*
Y147500D02*
D03*
Y132500D02*
D03*
Y137500D02*
D03*
Y127500D02*
D03*
D60*
X504500Y332250D02*
D03*
Y411750D02*
D03*
X549500Y332250D02*
D03*
Y411750D02*
D03*
X582500Y333250D02*
D03*
Y412750D02*
D03*
X627500Y333250D02*
D03*
Y412750D02*
D03*
D63*
X630510Y310134D02*
D03*
X621710D02*
D03*
X621600Y293000D02*
D03*
X630400D02*
D03*
X531400Y333000D02*
D03*
X522600D02*
D03*
X600600D02*
D03*
X609400D02*
D03*
X607650Y297688D02*
D03*
X598850D02*
D03*
X252400Y268000D02*
D03*
X243600D02*
D03*
X243200Y255000D02*
D03*
X252000D02*
D03*
X479600Y766000D02*
D03*
X488400D02*
D03*
X453600Y446000D02*
D03*
X462400D02*
D03*
X167400Y1050000D02*
D03*
X158600D02*
D03*
Y1037000D02*
D03*
X167400D02*
D03*
X62600Y535000D02*
D03*
X71400D02*
D03*
Y549000D02*
D03*
X62600D02*
D03*
D64*
X58500Y511000D02*
D03*
X75500D02*
D03*
X92500D02*
D03*
X109500D02*
D03*
D65*
X90000Y244400D02*
D03*
Y235600D02*
D03*
X292000Y304000D02*
D03*
Y312800D02*
D03*
X213000Y291800D02*
D03*
Y283000D02*
D03*
X90000Y105600D02*
D03*
Y114400D02*
D03*
X566000Y634000D02*
D03*
Y625200D02*
D03*
X144000Y314600D02*
D03*
Y323400D02*
D03*
X214000Y387400D02*
D03*
Y378600D02*
D03*
X319000Y370600D02*
D03*
Y379400D02*
D03*
X172000Y1013400D02*
D03*
Y1004600D02*
D03*
D66*
X64000Y727000D02*
D03*
Y628000D02*
D03*
D67*
X72320Y601000D02*
D03*
X63680D02*
D03*
X524680Y559000D02*
D03*
X533320D02*
D03*
X579320Y515000D02*
D03*
X570680D02*
D03*
X599000Y313000D02*
D03*
X607640D02*
D03*
X91320Y128000D02*
D03*
X82680D02*
D03*
X294320Y288000D02*
D03*
X285680D02*
D03*
X378320Y293000D02*
D03*
X369680D02*
D03*
X378320Y258000D02*
D03*
X369680D02*
D03*
X274320Y268000D02*
D03*
X265680D02*
D03*
X266000Y255000D02*
D03*
X274640D02*
D03*
X197320Y293000D02*
D03*
X188680D02*
D03*
X197320Y308000D02*
D03*
X188680D02*
D03*
X170320Y323000D02*
D03*
X161680D02*
D03*
X52320Y461000D02*
D03*
X43680D02*
D03*
Y475000D02*
D03*
X52320D02*
D03*
X93640Y258000D02*
D03*
X85000D02*
D03*
X525680Y766000D02*
D03*
X534320D02*
D03*
D68*
X428000Y463500D02*
D03*
D69*
X576000Y808000D02*
D03*
X480000Y659000D02*
D03*
X556000Y559000D02*
D03*
X580000Y456000D02*
D03*
X104000Y106000D02*
D03*
X108000Y233000D02*
D03*
X174000Y425000D02*
D03*
X231000Y494000D02*
D03*
X154000Y484000D02*
D03*
X24000Y574000D02*
D03*
X310000Y815000D02*
D03*
X291000Y947000D02*
D03*
X265000Y945000D02*
D03*
D70*
X546500Y686000D02*
D03*
X523500D02*
D03*
D71*
X535000Y726000D02*
D03*
D72*
X492750Y729250D02*
D03*
X486250D02*
D03*
X479750D02*
D03*
X473250D02*
D03*
X492750Y682750D02*
D03*
X486250D02*
D03*
X479750D02*
D03*
X473250D02*
D03*
D73*
X540250Y617250D02*
D03*
Y623750D02*
D03*
Y630250D02*
D03*
Y636750D02*
D03*
X493750Y617250D02*
D03*
Y623750D02*
D03*
Y630250D02*
D03*
Y636750D02*
D03*
X504750Y521750D02*
D03*
Y515250D02*
D03*
Y508750D02*
D03*
Y502250D02*
D03*
X551250Y521750D02*
D03*
Y515250D02*
D03*
Y508750D02*
D03*
Y502250D02*
D03*
X504750Y469750D02*
D03*
Y463250D02*
D03*
Y456750D02*
D03*
Y450250D02*
D03*
X551250Y469750D02*
D03*
Y463250D02*
D03*
Y456750D02*
D03*
Y450250D02*
D03*
D74*
X566000Y601680D02*
D03*
Y610320D02*
D03*
X474000Y499680D02*
D03*
Y508320D02*
D03*
Y475680D02*
D03*
Y484320D02*
D03*
X90000Y155680D02*
D03*
Y164320D02*
D03*
X312166Y271014D02*
D03*
Y279654D02*
D03*
X304000Y392680D02*
D03*
Y401320D02*
D03*
Y379320D02*
D03*
Y370680D02*
D03*
X144000Y368320D02*
D03*
Y359680D02*
D03*
X24000Y461640D02*
D03*
Y453000D02*
D03*
X138000Y598000D02*
D03*
Y606640D02*
D03*
X246000Y827320D02*
D03*
Y818680D02*
D03*
X65000Y892320D02*
D03*
Y883680D02*
D03*
X45000Y924320D02*
D03*
Y915680D02*
D03*
X159000Y1004680D02*
D03*
Y1013320D02*
D03*
X189000D02*
D03*
Y1004680D02*
D03*
Y1035320D02*
D03*
Y1026680D02*
D03*
X90000Y285680D02*
D03*
Y294320D02*
D03*
D75*
X547500Y585000D02*
D03*
X524500D02*
D03*
X508500D02*
D03*
X485500D02*
D03*
D76*
X614500Y535600D02*
D03*
X595500D02*
D03*
X605000Y514400D02*
D03*
D77*
X633200Y272500D02*
D03*
X620500D02*
D03*
X607800D02*
D03*
X595100D02*
D03*
X582400D02*
D03*
X569700D02*
D03*
X557000D02*
D03*
X544300D02*
D03*
X531600D02*
D03*
X518900D02*
D03*
X506200D02*
D03*
X493500D02*
D03*
X468100Y97500D02*
D03*
X480800D02*
D03*
X493500D02*
D03*
X506200D02*
D03*
X518900D02*
D03*
X531600D02*
D03*
X544300D02*
D03*
X557000D02*
D03*
X569700D02*
D03*
X582400D02*
D03*
X595100D02*
D03*
X607800D02*
D03*
X620500D02*
D03*
X633200D02*
D03*
X480800Y272500D02*
D03*
X468100D02*
D03*
D78*
X455600Y254850D02*
D03*
Y242150D02*
D03*
Y229450D02*
D03*
Y216750D02*
D03*
Y204050D02*
D03*
Y191350D02*
D03*
Y178650D02*
D03*
Y165950D02*
D03*
Y153250D02*
D03*
Y140550D02*
D03*
Y127850D02*
D03*
Y115150D02*
D03*
D79*
X556000Y200000D02*
D03*
X570000D02*
D03*
Y214000D02*
D03*
X556000D02*
D03*
X542000D02*
D03*
Y200000D02*
D03*
Y186000D02*
D03*
X556000D02*
D03*
X570000D02*
D03*
D80*
X214000Y415000D02*
D03*
X203800Y439000D02*
D03*
X224200D02*
D03*
X221800Y1022000D02*
D03*
X232000Y998000D02*
D03*
X211600D02*
D03*
X221800Y980000D02*
D03*
X232000Y956000D02*
D03*
X211600D02*
D03*
X121000Y606000D02*
D03*
X100600D02*
D03*
X110800Y582000D02*
D03*
D81*
X138000Y484000D02*
D03*
X118000D02*
D03*
D82*
X71000Y475500D02*
D03*
Y494500D02*
D03*
X97000D02*
D03*
Y485000D02*
D03*
Y475500D02*
D03*
D83*
X82300Y574000D02*
D03*
X53700D02*
D03*
D84*
X268000Y832000D02*
D03*
Y814400D02*
D03*
D85*
X225800Y823000D02*
D03*
X196200D02*
D03*
X175800D02*
D03*
X146200D02*
D03*
X128800D02*
D03*
X99200D02*
D03*
D86*
X64000D02*
D03*
Y775000D02*
D03*
D87*
X93500Y862000D02*
D03*
X64500D02*
D03*
X93500Y915000D02*
D03*
X64500D02*
D03*
X162500Y982000D02*
D03*
X133500D02*
D03*
D88*
X128300Y882000D02*
D03*
X171000D02*
D03*
X249350Y883000D02*
D03*
X206650D02*
D03*
X327000Y912000D02*
D03*
X284300D02*
D03*
X284650Y883000D02*
D03*
X327350D02*
D03*
X249000Y913000D02*
D03*
X206300D02*
D03*
D89*
X108000Y265000D02*
D03*
X122000D02*
D03*
X108000Y286000D02*
D03*
X122000D02*
D03*
X122322Y245522D02*
D03*
X108322D02*
D03*
X117000Y120000D02*
D03*
X103000D02*
D03*
X117000Y150000D02*
D03*
X103000D02*
D03*
X117000Y135000D02*
D03*
X103000D02*
D03*
D90*
X11950Y362000D02*
D03*
Y438000D02*
D03*
X34650Y362000D02*
D03*
Y438000D02*
D03*
D91*
X44050Y377500D02*
D03*
Y392500D02*
D03*
Y422500D02*
D03*
D92*
X63000Y952000D02*
D03*
X583000Y852000D02*
D03*
Y902000D02*
D03*
Y952000D02*
D03*
D93*
X335400Y29600D02*
D03*
X310000D02*
D03*
X233800D02*
D03*
X259200D02*
D03*
X284600D02*
D03*
X486794D02*
D03*
X462400D02*
D03*
X386200D02*
D03*
X411600D02*
D03*
X437000D02*
D03*
X360800D02*
D03*
X208400D02*
D03*
X183000D02*
D03*
X157600D02*
D03*
X284600Y1071000D02*
D03*
X310000D02*
D03*
X335400D02*
D03*
X360800D02*
D03*
D94*
X42840Y1055600D02*
D03*
X602560D02*
D03*
X42840Y45000D02*
D03*
X602560D02*
D03*
D95*
X244000Y139000D02*
D03*
D96*
X344000D02*
D03*
D97*
X257500Y394000D02*
D03*
D98*
Y374000D02*
D03*
D99*
X58500Y226800D02*
D03*
Y313200D02*
D03*
Y96800D02*
D03*
Y183200D02*
D03*
D100*
X18500Y226800D02*
D03*
Y313200D02*
D03*
Y96800D02*
D03*
Y183200D02*
D03*
D101*
X23301Y385001D02*
D03*
Y415001D02*
D03*
M02*
