G04*
G04 #@! TF.GenerationSoftware,Altium Limited,Altium Designer,25.4.2 (15)*
G04*
G04 Layer_Color=16711935*
%FSLAX44Y44*%
%MOMM*%
G71*
G04*
G04 #@! TF.SameCoordinates,1E8D850E-D21C-4C0F-B5A5-9806772CD421*
G04*
G04*
G04 #@! TF.FilePolarity,Negative*
G04*
G01*
G75*
%ADD92O,5.1016X1.6016*%
%ADD93C,1.6256*%
%ADD94C,1.8016*%
%ADD95C,1.5500*%
%ADD96R,1.5500X1.5500*%
%ADD97R,1.4096X1.4096*%
%ADD98C,1.4096*%
G04:AMPARAMS|DCode=99|XSize=1mm|YSize=1.8mm|CornerRadius=0.5mm|HoleSize=0mm|Usage=FLASHONLY|Rotation=270.000|XOffset=0mm|YOffset=0mm|HoleType=Round|Shape=RoundedRectangle|*
%AMROUNDEDRECTD99*
21,1,1.0000,0.8000,0,0,270.0*
21,1,0.0000,1.8000,0,0,270.0*
1,1,1.0000,-0.4000,0.0000*
1,1,1.0000,-0.4000,0.0000*
1,1,1.0000,0.4000,0.0000*
1,1,1.0000,0.4000,0.0000*
%
%ADD99ROUNDEDRECTD99*%
G04:AMPARAMS|DCode=100|XSize=1mm|YSize=2.2mm|CornerRadius=0.5mm|HoleSize=0mm|Usage=FLASHONLY|Rotation=270.000|XOffset=0mm|YOffset=0mm|HoleType=Round|Shape=RoundedRectangle|*
%AMROUNDEDRECTD100*
21,1,1.0000,1.2000,0,0,270.0*
21,1,0.0000,2.2000,0,0,270.0*
1,1,1.0000,-0.6000,0.0000*
1,1,1.0000,-0.6000,0.0000*
1,1,1.0000,0.6000,0.0000*
1,1,1.0000,0.6000,0.0000*
%
%ADD100ROUNDEDRECTD100*%
%ADD101C,0.8016*%
D92*
X63000Y952000D02*
D03*
X583000Y852000D02*
D03*
Y902000D02*
D03*
Y952000D02*
D03*
D93*
X335400Y29600D02*
D03*
X310000D02*
D03*
X233800D02*
D03*
X259200D02*
D03*
X284600D02*
D03*
X486794D02*
D03*
X462400D02*
D03*
X386200D02*
D03*
X411600D02*
D03*
X437000D02*
D03*
X360800D02*
D03*
X208400D02*
D03*
X183000D02*
D03*
X157600D02*
D03*
X284600Y1071000D02*
D03*
X310000D02*
D03*
X335400D02*
D03*
X360800D02*
D03*
D94*
X42840Y1055600D02*
D03*
X602560D02*
D03*
X42840Y45000D02*
D03*
X602560D02*
D03*
D95*
X244000Y139000D02*
D03*
D96*
X344000D02*
D03*
D97*
X257500Y394000D02*
D03*
D98*
Y374000D02*
D03*
D99*
X58500Y226800D02*
D03*
Y313200D02*
D03*
Y96800D02*
D03*
Y183200D02*
D03*
D100*
X18500Y226800D02*
D03*
Y313200D02*
D03*
Y96800D02*
D03*
Y183200D02*
D03*
D101*
X23301Y385001D02*
D03*
Y415001D02*
D03*
M02*
